<svg width="20" height="20" viewBox="0 0 20 20" fill="none" xmlns="http://www.w3.org/2000/svg">
<path d="M12.4998 2.5V5.83333C12.4998 6.05435 12.5876 6.26631 12.7439 6.42259C12.9002 6.57887 13.1122 6.66667 13.3332 6.66667H16.6665M12.4998 2.5H9.1665C8.72448 2.5 8.30055 2.67559 7.98799 2.98816C7.67543 3.30072 7.49984 3.72464 7.49984 4.16667V12.5C7.49984 12.942 7.67543 13.366 7.98799 13.6785C8.30055 13.9911 8.72448 14.1667 9.1665 14.1667H14.9998C15.4419 14.1667 15.8658 13.9911 16.1783 13.6785C16.4909 13.366 16.6665 12.942 16.6665 12.5V6.66667M12.4998 2.5L16.6665 6.66667M13.3332 14.1667V15.8333C13.3332 16.2754 13.1576 16.6993 12.845 17.0118C12.5325 17.3244 12.1085 17.5 11.6665 17.5H5.83317C5.39114 17.5 4.96722 17.3244 4.65466 17.0118C4.3421 16.6993 4.1665 16.2754 4.1665 15.8333V7.5C4.1665 7.05797 4.3421 6.63405 4.65466 6.32149C4.96722 6.00893 5.39114 5.83333 5.83317 5.83333H7.49984" stroke="#354052" stroke-width="2" stroke-linecap="round" stroke-linejoin="round"/>
</svg>
