<svg width="48" height="48" viewBox="0 0 48 48" fill="none" xmlns="http://www.w3.org/2000/svg">
<path d="M16 12H36C37.0609 12 38.0783 12.4214 38.8284 13.1716C39.5786 13.9217 40 14.9391 40 16V36C40 37.0609 39.5786 38.0783 38.8284 38.8284C38.0783 39.5786 37.0609 40 36 40H12M16 12V36M16 12C16 10.9391 15.5786 9.92172 14.8284 9.17157C14.0783 8.42143 13.0609 8 12 8C10.9391 8 9.92172 8.42143 9.17157 9.17157C8.42143 9.92172 8 10.9391 8 12V36M12 40C10.9391 40 9.92172 39.5786 9.17157 38.8284C8.42143 38.0783 8 37.0609 8 36M12 40C13.0609 40 14.0783 39.5786 14.8284 38.8284C15.5786 38.0783 16 37.0609 16 36M8 36C8 34.9391 8.42143 33.9217 9.17157 33.1716C9.92172 32.4214 10.9391 32 12 32C13.0609 32 14.0783 32.4214 14.8284 33.1716C15.5786 33.9217 16 34.9391 16 36" stroke="#36363D" stroke-width="2" stroke-linecap="round" stroke-linejoin="round"/>
</svg>
