<svg width="48" height="48" viewBox="0 0 48 48" fill="none" xmlns="http://www.w3.org/2000/svg">
<rect width="48" height="48" rx="24" fill="black"/>
<rect x="0.5" y="0.5" width="47" height="47" rx="23.5" stroke="white" stroke-opacity="0.5"/>
<path fill-rule="evenodd" clip-rule="evenodd" d="M14.3172 14.1225C14 14.8272 14 15.731 14 17.5385V30.4615C14 32.269 14 33.1728 14.3172 33.8775C14.6782 34.6796 15.3204 35.3218 16.1225 35.6828C16.8272 36 17.731 36 19.5385 36H26C32.6274 36 38 30.6274 38 24C38 17.3726 32.6274 12 26 12H19.5385C17.731 12 16.8272 12 16.1225 12.3172C15.3204 12.6782 14.6782 13.3204 14.3172 14.1225ZM22.587 21.6811C22.2645 22.4776 22.04 23.309 22.1529 23.8769C22.8193 23.8836 22.8534 23.8469 23.1082 23.5722C23.1537 23.5231 23.2064 23.4663 23.2709 23.4009L28.0476 17.7927C29.3695 16.2408 31.0028 17.4506 29.7241 18.9753L25.0613 24.5352C25.0551 24.5426 25.0489 24.55 25.0427 24.5574C24.6941 24.9758 24.3294 25.4136 24.6372 25.9826C24.8882 26.2192 25.646 25.9419 26.4098 25.4976L30.6892 23.0084C32.48 21.9667 33.4573 23.9073 31.8604 24.8007L26.835 27.6122C26.7382 27.6669 26.6227 27.7286 26.495 27.7968C25.4521 28.3539 23.5953 29.3457 24.4319 30.5423C24.9773 31.3222 26.891 31.3167 28.1746 31.313C28.2597 31.3128 28.342 31.3125 28.421 31.3125C30.1215 31.3125 30.1273 33.3335 28.2515 33.3333L23.8866 33.3329C17.7711 33.3385 16.6914 31.5161 16.692 25.6569L16.6667 19.2474C16.6592 17.3548 18.7926 17.2471 18.7847 19.1681L18.7734 21.9014C18.8117 22.5103 18.8597 22.7389 19.1643 23.0128C19.6943 23.2681 20.1982 22.2891 20.5913 21.2335L22.1084 17.1601C22.8734 15.1059 24.8418 16.1125 24.2335 17.6148L22.587 21.6811Z" fill="#E7E7E2"/>
</svg>
