<svg width="48" height="48" viewBox="0 0 48 48" fill="none" xmlns="http://www.w3.org/2000/svg">
<rect width="48" height="48" rx="24" fill="#0B9BD8" fill-opacity="0.16"/>
<path d="M20 32.3252H30M19 18.3252L25 17.3252L31 18.3252M19 18.3252L22 24.3252C22 25.1208 21.6839 25.8839 21.1213 26.4465C20.5587 27.0091 19.7956 27.3252 19 27.3252C18.2044 27.3252 17.4413 27.0091 16.8787 26.4465C16.3161 25.8839 16 25.1208 16 24.3252L19 18.3252ZM31 18.3252L34 24.3252C34 25.1208 33.6839 25.8839 33.1213 26.4465C32.5587 27.0091 31.7956 27.3252 31 27.3252C30.2044 27.3252 29.4413 27.0091 28.8787 26.4465C28.3161 25.8839 28 25.1208 28 24.3252L31 18.3252ZM25 15.3252V32.3252" stroke="#0B9BD8" stroke-width="2" stroke-linecap="round" stroke-linejoin="round"/>
</svg>
