<svg width="48" height="48" viewBox="0 0 48 48" fill="none" xmlns="http://www.w3.org/2000/svg">
<rect width="48" height="48" rx="24" fill="#EF5821" fill-opacity="0.16"/>
<path d="M30 20V17C30 16.7348 29.8946 16.4804 29.7071 16.2929C29.5196 16.1054 29.2652 16 29 16H19C18.4696 16 17.9609 16.2107 17.5858 16.5858C17.2107 16.9609 17 17.4696 17 18M17 18C17 18.5304 17.2107 19.0391 17.5858 19.4142C17.9609 19.7893 18.4696 20 19 20H31C31.2652 20 31.5196 20.1054 31.7071 20.2929C31.8946 20.4804 32 20.7348 32 21V24M17 18V30C17 30.5304 17.2107 31.0391 17.5858 31.4142C17.9609 31.7893 18.4696 32 19 32H31C31.2652 32 31.5196 31.8946 31.7071 31.7071C31.8946 31.5196 32 31.2652 32 31V28M33 24V28H29C28.4696 28 27.9609 27.7893 27.5858 27.4142C27.2107 27.0391 27 26.5304 27 26C27 25.4696 27.2107 24.9609 27.5858 24.5858C27.9609 24.2107 28.4696 24 29 24H33Z" stroke="#EF5821" stroke-width="2" stroke-linecap="round" stroke-linejoin="round"/>
</svg>
