<svg width="20" height="20" viewBox="0 0 20 20" fill="none" xmlns="http://www.w3.org/2000/svg">
<path d="M7.49984 11.6667L12.4998 6.66667M8.33317 7.08333C8.33317 7.31345 8.14662 7.5 7.9165 7.5C7.68639 7.5 7.49984 7.31345 7.49984 7.08333C7.49984 6.85321 7.68639 6.66667 7.9165 6.66667C8.14662 6.66667 8.33317 6.85321 8.33317 7.08333ZM12.4998 11.25C12.4998 11.4801 12.3133 11.6667 12.0832 11.6667C11.8531 11.6667 11.6665 11.4801 11.6665 11.25C11.6665 11.0199 11.8531 10.8333 12.0832 10.8333C12.3133 10.8333 12.4998 11.0199 12.4998 11.25ZM4.1665 17.5V4.16667C4.1665 3.72464 4.3421 3.30072 4.65466 2.98816C4.96722 2.67559 5.39114 2.5 5.83317 2.5H14.1665C14.6085 2.5 15.0325 2.67559 15.345 2.98816C15.6576 3.30072 15.8332 3.72464 15.8332 4.16667V17.5L13.3332 15.8333L11.6665 17.5L9.99984 15.8333L8.33317 17.5L6.6665 15.8333L4.1665 17.5Z" stroke="#354052" stroke-width="2" stroke-linecap="round" stroke-linejoin="round"/>
</svg>
