<svg width="32" height="26" viewBox="0 0 32 26" fill="none" xmlns="http://www.w3.org/2000/svg">
<g filter="url(#filter0_d_3233_8058)">
<rect width="32" height="24" rx="4" fill="#252429"/>
<path d="M9.84 17.144C9.192 17.144 8.616 16.996 8.112 16.7C7.616 16.396 7.228 15.988 6.948 15.476C6.668 14.956 6.528 14.376 6.528 13.736C6.528 13.08 6.668 12.5 6.948 11.996C7.236 11.492 7.62 11.096 8.1 10.808C8.58 10.512 9.124 10.364 9.732 10.364C10.22 10.364 10.656 10.448 11.04 10.616C11.424 10.784 11.748 11.016 12.012 11.312C12.276 11.6 12.476 11.932 12.612 12.308C12.756 12.684 12.828 13.084 12.828 13.508C12.828 13.612 12.824 13.72 12.816 13.832C12.808 13.944 12.792 14.048 12.768 14.144H7.596V13.064H12L11.352 13.556C11.432 13.164 11.404 12.816 11.268 12.512C11.14 12.2 10.94 11.956 10.668 11.78C10.404 11.596 10.092 11.504 9.732 11.504C9.372 11.504 9.052 11.596 8.772 11.78C8.492 11.956 8.276 12.212 8.124 12.548C7.972 12.876 7.912 13.276 7.944 13.748C7.904 14.188 7.964 14.572 8.124 14.9C8.292 15.228 8.524 15.484 8.82 15.668C9.124 15.852 9.468 15.944 9.852 15.944C10.244 15.944 10.576 15.856 10.848 15.68C11.128 15.504 11.348 15.276 11.508 14.996L12.612 15.536C12.484 15.84 12.284 16.116 12.012 16.364C11.748 16.604 11.428 16.796 11.052 16.94C10.684 17.076 10.28 17.144 9.84 17.144ZM16.5514 17.144C15.8874 17.144 15.3034 16.98 14.7994 16.652C14.3034 16.324 13.9554 15.884 13.7554 15.332L14.7994 14.84C14.9754 15.208 15.2154 15.5 15.5194 15.716C15.8314 15.932 16.1754 16.04 16.5514 16.04C16.8714 16.04 17.1314 15.968 17.3314 15.824C17.5314 15.68 17.6314 15.484 17.6314 15.236C17.6314 15.076 17.5874 14.948 17.4994 14.852C17.4114 14.748 17.2994 14.664 17.1634 14.6C17.0354 14.536 16.9034 14.488 16.7674 14.456L15.7474 14.168C15.1874 14.008 14.7674 13.768 14.4874 13.448C14.2154 13.12 14.0794 12.74 14.0794 12.308C14.0794 11.916 14.1794 11.576 14.3794 11.288C14.5794 10.992 14.8554 10.764 15.2074 10.604C15.5594 10.444 15.9554 10.364 16.3954 10.364C16.9874 10.364 17.5154 10.512 17.9794 10.808C18.4434 11.096 18.7714 11.5 18.9634 12.02L17.9194 12.512C17.7914 12.2 17.5874 11.952 17.3074 11.768C17.0354 11.584 16.7274 11.492 16.3834 11.492C16.0874 11.492 15.8514 11.564 15.6754 11.708C15.4994 11.844 15.4114 12.024 15.4114 12.248C15.4114 12.4 15.4514 12.528 15.5314 12.632C15.6114 12.728 15.7154 12.808 15.8434 12.872C15.9714 12.928 16.1034 12.976 16.2394 13.016L17.2954 13.328C17.8314 13.48 18.2434 13.72 18.5314 14.048C18.8194 14.368 18.9634 14.752 18.9634 15.2C18.9634 15.584 18.8594 15.924 18.6514 16.22C18.4514 16.508 18.1714 16.736 17.8114 16.904C17.4514 17.064 17.0314 17.144 16.5514 17.144ZM23.376 17.144C22.728 17.144 22.152 16.996 21.648 16.7C21.152 16.396 20.756 15.988 20.46 15.476C20.172 14.964 20.028 14.384 20.028 13.736C20.028 13.096 20.172 12.52 20.46 12.008C20.748 11.496 21.144 11.096 21.648 10.808C22.152 10.512 22.728 10.364 23.376 10.364C23.816 10.364 24.228 10.444 24.612 10.604C24.996 10.756 25.328 10.968 25.608 11.24C25.896 11.512 26.108 11.828 26.244 12.188L25.056 12.74C24.92 12.404 24.7 12.136 24.396 11.936C24.1 11.728 23.76 11.624 23.376 11.624C23.008 11.624 22.676 11.716 22.38 11.9C22.092 12.076 21.864 12.328 21.696 12.656C21.528 12.976 21.444 13.34 21.444 13.748C21.444 14.156 21.528 14.524 21.696 14.852C21.864 15.172 22.092 15.424 22.38 15.608C22.676 15.792 23.008 15.884 23.376 15.884C23.768 15.884 24.108 15.784 24.396 15.584C24.692 15.376 24.912 15.1 25.056 14.756L26.244 15.32C26.116 15.664 25.908 15.976 25.62 16.256C25.34 16.528 25.008 16.744 24.624 16.904C24.24 17.064 23.824 17.144 23.376 17.144Z" fill="white" fill-opacity="0.5"/>
</g>
<defs>
<filter id="filter0_d_3233_8058" x="0" y="0" width="32" height="26" filterUnits="userSpaceOnUse" color-interpolation-filters="sRGB">
<feFlood flood-opacity="0" result="BackgroundImageFix"/>
<feColorMatrix in="SourceAlpha" type="matrix" values="0 0 0 0 0 0 0 0 0 0 0 0 0 0 0 0 0 0 127 0" result="hardAlpha"/>
<feOffset dy="2"/>
<feComposite in2="hardAlpha" operator="out"/>
<feColorMatrix type="matrix" values="0 0 0 0 1 0 0 0 0 1 0 0 0 0 1 0 0 0 0.03 0"/>
<feBlend mode="normal" in2="BackgroundImageFix" result="effect1_dropShadow_3233_8058"/>
<feBlend mode="normal" in="SourceGraphic" in2="effect1_dropShadow_3233_8058" result="shape"/>
</filter>
</defs>
</svg>
