<svg width="56" height="26" viewBox="0 0 56 26" fill="none" xmlns="http://www.w3.org/2000/svg">
<g filter="url(#filter0_d_3233_8056)">
<rect width="56" height="24" rx="4" fill="#252429"/>
<path d="M11.792 17V10.508H13.088V11.816L12.968 11.624C13.112 11.2 13.344 10.896 13.664 10.712C13.984 10.52 14.368 10.424 14.816 10.424H15.212V11.66H14.648C14.2 11.66 13.836 11.8 13.556 12.08C13.284 12.352 13.148 12.744 13.148 13.256V17H11.792ZM19.1877 17.144C18.5397 17.144 17.9637 16.996 17.4597 16.7C16.9637 16.396 16.5757 15.988 16.2957 15.476C16.0157 14.956 15.8757 14.376 15.8757 13.736C15.8757 13.08 16.0157 12.5 16.2957 11.996C16.5837 11.492 16.9677 11.096 17.4477 10.808C17.9277 10.512 18.4717 10.364 19.0797 10.364C19.5677 10.364 20.0037 10.448 20.3877 10.616C20.7717 10.784 21.0957 11.016 21.3597 11.312C21.6237 11.6 21.8237 11.932 21.9597 12.308C22.1037 12.684 22.1757 13.084 22.1757 13.508C22.1757 13.612 22.1717 13.72 22.1637 13.832C22.1557 13.944 22.1397 14.048 22.1157 14.144H16.9437V13.064H21.3477L20.6997 13.556C20.7797 13.164 20.7517 12.816 20.6157 12.512C20.4877 12.2 20.2877 11.956 20.0157 11.78C19.7517 11.596 19.4397 11.504 19.0797 11.504C18.7197 11.504 18.3997 11.596 18.1197 11.78C17.8397 11.956 17.6237 12.212 17.4717 12.548C17.3197 12.876 17.2597 13.276 17.2917 13.748C17.2517 14.188 17.3117 14.572 17.4717 14.9C17.6397 15.228 17.8717 15.484 18.1677 15.668C18.4717 15.852 18.8157 15.944 19.1997 15.944C19.5917 15.944 19.9237 15.856 20.1957 15.68C20.4757 15.504 20.6957 15.276 20.8557 14.996L21.9597 15.536C21.8317 15.84 21.6317 16.116 21.3597 16.364C21.0957 16.604 20.7757 16.796 20.3997 16.94C20.0317 17.076 19.6277 17.144 19.1877 17.144ZM26.307 17.072C25.627 17.072 25.099 16.88 24.723 16.496C24.347 16.112 24.159 15.572 24.159 14.876V11.732H23.019V10.508H23.199C23.503 10.508 23.739 10.42 23.907 10.244C24.075 10.068 24.159 9.828 24.159 9.524V9.02H25.515V10.508H26.991V11.732H25.515V14.816C25.515 15.04 25.551 15.232 25.623 15.392C25.695 15.544 25.811 15.664 25.971 15.752C26.131 15.832 26.339 15.872 26.595 15.872C26.659 15.872 26.731 15.868 26.811 15.86C26.891 15.852 26.967 15.844 27.039 15.836V17C26.927 17.016 26.803 17.032 26.667 17.048C26.531 17.064 26.411 17.072 26.307 17.072ZM30.6783 17.144C30.1903 17.144 29.7623 17.036 29.3943 16.82C29.0263 16.596 28.7383 16.288 28.5303 15.896C28.3303 15.496 28.2303 15.036 28.2303 14.516V10.508H29.5863V14.396C29.5863 14.692 29.6463 14.952 29.7663 15.176C29.8863 15.4 30.0543 15.576 30.2703 15.704C30.4863 15.824 30.7343 15.884 31.0143 15.884C31.3023 15.884 31.5543 15.82 31.7703 15.692C31.9863 15.564 32.1543 15.384 32.2743 15.152C32.4023 14.92 32.4663 14.648 32.4663 14.336V10.508H33.8103V17H32.5263V15.728L32.6703 15.896C32.5183 16.296 32.2663 16.604 31.9143 16.82C31.5623 17.036 31.1503 17.144 30.6783 17.144ZM35.3936 17V10.508H36.6896V11.816L36.5696 11.624C36.7136 11.2 36.9456 10.896 37.2656 10.712C37.5856 10.52 37.9696 10.424 38.4176 10.424H38.8136V11.66H38.2496C37.8016 11.66 37.4376 11.8 37.1576 12.08C36.8856 12.352 36.7496 12.744 36.7496 13.256V17H35.3936ZM39.7412 17V10.508H41.0372V11.78L40.8812 11.612C41.0412 11.204 41.2972 10.896 41.6492 10.688C42.0012 10.472 42.4092 10.364 42.8732 10.364C43.3532 10.364 43.7772 10.468 44.1452 10.676C44.5132 10.884 44.8012 11.172 45.0092 11.54C45.2172 11.908 45.3212 12.332 45.3212 12.812V17H43.9772V13.172C43.9772 12.844 43.9172 12.568 43.7972 12.344C43.6772 12.112 43.5052 11.936 43.2812 11.816C43.0652 11.688 42.8172 11.624 42.5372 11.624C42.2572 11.624 42.0052 11.688 41.7812 11.816C41.5652 11.936 41.3972 12.112 41.2772 12.344C41.1572 12.576 41.0972 12.852 41.0972 13.172V17H39.7412Z" fill="white" fill-opacity="0.5"/>
</g>
<defs>
<filter id="filter0_d_3233_8056" x="0" y="0" width="56" height="26" filterUnits="userSpaceOnUse" color-interpolation-filters="sRGB">
<feFlood flood-opacity="0" result="BackgroundImageFix"/>
<feColorMatrix in="SourceAlpha" type="matrix" values="0 0 0 0 0 0 0 0 0 0 0 0 0 0 0 0 0 0 127 0" result="hardAlpha"/>
<feOffset dy="2"/>
<feComposite in2="hardAlpha" operator="out"/>
<feColorMatrix type="matrix" values="0 0 0 0 1 0 0 0 0 1 0 0 0 0 1 0 0 0 0.03 0"/>
<feBlend mode="normal" in2="BackgroundImageFix" result="effect1_dropShadow_3233_8056"/>
<feBlend mode="normal" in="SourceGraphic" in2="effect1_dropShadow_3233_8056" result="shape"/>
</filter>
</defs>
</svg>
