<svg id="Layer_1" data-name="Layer 1" xmlns="http://www.w3.org/2000/svg" viewBox="0 0 40 40"><defs><style>.cls-1{fill:#ff007a;}.cls-2,.cls-3{fill:#fff;}.cls-3{fill-rule:evenodd;}</style></defs><circle class="cls-1" cx="20" cy="20" r="20"/><path class="cls-2" d="M17.39,12.4c-.3,0-.32-.05-.17-.07a4.93,4.93,0,0,1,1.35.12,5.76,5.76,0,0,1,3,2l.26.3.37-.06a8.11,8.11,0,0,1,4.6.58,6.94,6.94,0,0,1,1,.6,2,2,0,0,1,.1.41,2.46,2.46,0,0,1-.16,1.56c-.12.22-.12.28,0,.46a.43.43,0,0,0,.39.25c.35,0,.71-.55.88-1.31l.07-.3.13.14a5.76,5.76,0,0,1,1.4,2.76l0,.22-.13-.19a2.21,2.21,0,0,0-.69-.73,4.25,4.25,0,0,0-2.37-.51,9.7,9.7,0,0,1-2.63-.4c-1.18-.39-1.78-.89-3.17-2.75a13.35,13.35,0,0,0-1.4-1.63A4.92,4.92,0,0,0,17.39,12.4Z"/><path class="cls-2" d="M28.1,14.23A3.1,3.1,0,0,1,28.36,13a.62.62,0,0,1,.13-.24.75.75,0,0,1-.06.21,2.73,2.73,0,0,0-.06,1.27c.1.65.14.73.83,1.44.32.33.69.74.84.92l.24.31L30,16.67a8.06,8.06,0,0,0-1.15-.9c-.1-.06-.12-.06-.19,0s-.07.14-.07.56a3.11,3.11,0,0,1-.32,1.47c-.11.21-.13.17,0-.07a2,2,0,0,0,.09-.9c0-1.25-.14-1.55-1-2.05-.22-.13-.59-.32-.81-.42l-.38-.18a6.33,6.33,0,0,1,1.2.35c.51.21.59.22.65.21S28.08,14.59,28.1,14.23Z"/><path class="cls-2" d="M18,16.37a5.08,5.08,0,0,1-.91-3.09l0-.3.14,0a3.17,3.17,0,0,1,.92.34c.58.35.84.82,1.08,2a8.45,8.45,0,0,0,.22.88,5,5,0,0,0,.57,1c.16.23.06.35-.3.32A2.92,2.92,0,0,1,18,16.37Z"/><path class="cls-2" d="M27.36,22.62c-2.84-1.15-3.85-2.14-3.85-3.82,0-.24,0-.45,0-.45l.24.19c.58.46,1.22.66,3,.92a12.48,12.48,0,0,1,2.2.46,4.18,4.18,0,0,1,3.07,3.35,5.74,5.74,0,0,1-.08,1.8,3.52,3.52,0,0,1-.46,1s0-.07,0-.18a2.37,2.37,0,0,0-.84-1.63A11.56,11.56,0,0,0,27.36,22.62Z"/><path class="cls-2" d="M25.35,23.1a4,4,0,0,0-.14-.61l-.07-.21.13.16a2.58,2.58,0,0,1,.46.83,1.81,1.81,0,0,1,.1.81,1.9,1.9,0,0,1-.1.77,2.62,2.62,0,0,1-.61,1,3.42,3.42,0,0,1-2.15,1l-1.1.09a8.51,8.51,0,0,0-2.44.4.57.57,0,0,1-.19.05,3.14,3.14,0,0,1,.78-.46,7.51,7.51,0,0,1,2.15-.58A9.52,9.52,0,0,0,23.45,26,2.48,2.48,0,0,0,25.35,23.1Z"/><path class="cls-2" d="M26.66,25.41a3.38,3.38,0,0,1-.26-2.33c0-.07.06-.14.09-.14a.58.58,0,0,1,.2.1c.17.12.53.32,1.45.82a7.4,7.4,0,0,1,2.29,1.68,3.63,3.63,0,0,1,.76,1.74A5.78,5.78,0,0,1,31.12,29,4.26,4.26,0,0,1,29,31.75a1.71,1.71,0,0,1-.3.14,1.16,1.16,0,0,1,.13-.31A2.87,2.87,0,0,0,29,29.35a9.22,9.22,0,0,0-1.15-2.07A13.43,13.43,0,0,1,26.66,25.41Z"/><path class="cls-2" d="M16,29.81a7.78,7.78,0,0,1,3.58-1.72,5.19,5.19,0,0,1,1.85.07,3.2,3.2,0,0,1,1.82,1.16,4.38,4.38,0,0,1,.66,2c.05.38.13.79.14.87a2,2,0,0,0,.63,1.14,2.22,2.22,0,0,0,2,.06,1.11,1.11,0,0,1,.24-.08,2.15,2.15,0,0,1-.62.42,2,2,0,0,1-1,.25,2.09,2.09,0,0,1-1.76-1.08,8.32,8.32,0,0,1-.47-.95A3.43,3.43,0,0,0,21.63,30,1.78,1.78,0,0,0,20,29.85a1.09,1.09,0,0,0-.38,1.69,1.55,1.55,0,0,0,.82.43.88.88,0,0,0,1-.88.68.68,0,0,0-.47-.7c-.46-.21-1,0-.95.47a.4.4,0,0,0,.27.39c.12.06.12.06,0,0a.53.53,0,0,1-.18-.93,1,1,0,0,1,1.53.33,1.46,1.46,0,0,1,0,1,1.33,1.33,0,0,1-1.64.78,2.38,2.38,0,0,1-1.25-.85,3.83,3.83,0,0,0-2.83-1.45l-.27,0Z"/><path class="cls-3" d="M8.39,6.68c3.35,4.07,8.51,10.39,8.77,10.74s.13.56-.23.76a2.11,2.11,0,0,1-.82.23,1,1,0,0,1-.69-.3c-.13-.13-.69-.95-2-2.92-1-1.51-1.78-2.76-1.79-2.77s-.06,0,1.69,3.1a25.9,25.9,0,0,1,1.47,2.76c0,.19-.06.29-.29.55a3.19,3.19,0,0,0-.69,1.94,6,6,0,0,1-1.64,3.31,6.08,6.08,0,0,0-.9,1.27A2.51,2.51,0,0,0,11,26.5a3.52,3.52,0,0,0,.19,1.41,4.66,4.66,0,0,0,.69,1.35,3.4,3.4,0,0,1,.53,1c0,.12,0,.12.55,0a5.57,5.57,0,0,0,2.81-1.38,1.27,1.27,0,0,0,.43-1.09,1.12,1.12,0,0,0-.1-.6,2.48,2.48,0,0,0-1-1,2.27,2.27,0,0,1-1.2-1.54A2.72,2.72,0,0,1,14.37,23,5.12,5.12,0,0,0,15,20.73c.05-.61.12-.85.29-1a1.08,1.08,0,0,1,.79-.33,2.62,2.62,0,0,0,1.58-.65,1.33,1.33,0,0,0,.49-1.05v-.33l-.18-.2C17.3,16.36,7.94,6.06,7.9,6.06S8.12,6.34,8.39,6.68ZM12.8,27.12a.6.6,0,0,0-.18-.79c-.25-.16-.62-.08-.62.13a.15.15,0,0,0,.11.15c.13.07.15.14.05.3s-.1.3,0,.4A.41.41,0,0,0,12.8,27.12Z"/><path class="cls-3" d="M18.62,19.56a1.29,1.29,0,0,0-.77.85,1.24,1.24,0,0,0,.07.78c.16.2.3.25.7.25.79,0,1.47-.34,1.54-.76a1.11,1.11,0,0,0-.64-1A1.47,1.47,0,0,0,18.62,19.56Zm.92.72a.32.32,0,0,0-.14-.49c-.39-.24-1,0-1,.33,0,.19.3.39.59.39A.75.75,0,0,0,19.54,20.28Z"/></svg>