<svg width="20" height="20" viewBox="0 0 20 20" fill="none" xmlns="http://www.w3.org/2000/svg">
<path d="M14.1667 6.66667V4.16667C14.1667 3.94565 14.0789 3.73369 13.9226 3.57741C13.7663 3.42113 13.5543 3.33333 13.3333 3.33333H6.66666M3.8225 3.82C3.58896 4.05295 3.4298 4.34996 3.36516 4.67342C3.30053 4.99688 3.33333 5.33225 3.45941 5.63705C3.58549 5.94186 3.79918 6.2024 4.07343 6.38569C4.34767 6.56898 4.67014 6.66676 5 6.66667H6.66666M10 6.66667H15C15.221 6.66667 15.433 6.75446 15.5893 6.91074C15.7455 7.06702 15.8333 7.27899 15.8333 7.5V10M15.8333 15.8333C15.8333 16.0543 15.7455 16.2663 15.5893 16.4226C15.433 16.5789 15.221 16.6667 15 16.6667H5C4.55797 16.6667 4.13405 16.4911 3.82149 16.1785C3.50893 15.866 3.33333 15.442 3.33333 15V5M13.3333 10H16.6667V13.3333M13.3333 13.3333C12.8913 13.3333 12.4674 13.1577 12.1548 12.8452C11.8423 12.5326 11.6667 12.1087 11.6667 11.6667M2.5 2.5L17.5 17.5" stroke="#FF303E" stroke-width="2" stroke-linecap="round" stroke-linejoin="round"/>
</svg>
