<svg width="20" height="20" viewBox="0 0 20 20" fill="none" xmlns="http://www.w3.org/2000/svg">
<path d="M14.1668 6.66732V4.16732C14.1668 3.9463 14.079 3.73434 13.9228 3.57806C13.7665 3.42178 13.5545 3.33398 13.3335 3.33398H5.00016C4.55814 3.33398 4.13421 3.50958 3.82165 3.82214C3.50909 4.1347 3.3335 4.55862 3.3335 5.00065M3.3335 5.00065C3.3335 5.44268 3.50909 5.8666 3.82165 6.17916C4.13421 6.49172 4.55814 6.66732 5.00016 6.66732H15.0002C15.2212 6.66732 15.4331 6.75512 15.5894 6.9114C15.7457 7.06768 15.8335 7.27964 15.8335 7.50065V10.0007M3.3335 5.00065V15.0007C3.3335 15.4427 3.50909 15.8666 3.82165 16.1792C4.13421 16.4917 4.55814 16.6673 5.00016 16.6673H15.0002C15.2212 16.6673 15.4331 16.5795 15.5894 16.4232C15.7457 16.267 15.8335 16.055 15.8335 15.834V13.334M16.6668 10.0007V13.334H13.3335C12.8915 13.334 12.4675 13.1584 12.155 12.8458C11.8424 12.5333 11.6668 12.1093 11.6668 11.6673C11.6668 11.2253 11.8424 10.8014 12.155 10.4888C12.4675 10.1762 12.8915 10.0007 13.3335 10.0007H16.6668Z" stroke="white" stroke-width="2" stroke-linecap="round" stroke-linejoin="round"/>
</svg>
