<svg width="20" height="20" viewBox="0 0 20 20" fill="none" xmlns="http://www.w3.org/2000/svg">
<path d="M14.1673 6.66666V4.16666C14.1673 3.94565 14.0795 3.73369 13.9232 3.57741C13.767 3.42113 13.555 3.33333 13.334 3.33333H5.00065C4.55862 3.33333 4.1347 3.50892 3.82214 3.82148C3.50958 4.13404 3.33398 4.55797 3.33398 4.99999M3.33398 4.99999C3.33398 5.44202 3.50958 5.86595 3.82214 6.17851C4.1347 6.49107 4.55862 6.66666 5.00065 6.66666H15.0007C15.2217 6.66666 15.4336 6.75446 15.5899 6.91074C15.7462 7.06702 15.834 7.27898 15.834 7.49999V9.99999M3.33398 4.99999V15C3.33398 15.442 3.50958 15.8659 3.82214 16.1785C4.1347 16.4911 4.55862 16.6667 5.00065 16.6667H15.0007C15.2217 16.6667 15.4336 16.5789 15.5899 16.4226C15.7462 16.2663 15.834 16.0543 15.834 15.8333V13.3333M16.6673 9.99999V13.3333H13.334C12.892 13.3333 12.468 13.1577 12.1555 12.8452C11.8429 12.5326 11.6673 12.1087 11.6673 11.6667C11.6673 11.2246 11.8429 10.8007 12.1555 10.4882C12.468 10.1756 12.892 9.99999 13.334 9.99999H16.6673Z" stroke="white" stroke-opacity="0.64" stroke-linecap="round" stroke-linejoin="round"/>
</svg>
