<svg width="88" height="88" viewBox="0 0 88 88" fill="none" xmlns="http://www.w3.org/2000/svg">
  <path d="M44 88C68.3005 88 88 68.3006 88 44C88 19.6995 68.3005 0 44 0C19.6995 0 0 19.6995 0 44C0 68.3006 19.6995 88 44 88Z" fill="black" />
  <path d="M23.1207 87.3358L40.8269 25.6591C41.1811 24.7443 41.7713 23.918 42.5386 23.2687C43.6452 22.3244 45.0174 21.8227 46.4487 21.8227C46.611 21.8227 46.788 21.8227 46.9504 21.8375C50.285 22.1031 52.7639 25.0394 52.4983 28.374C52.3655 29.9824 51.613 31.4579 50.3883 32.5055C49.5178 33.2433 48.4849 33.7154 47.3783 33.8777C46.9356 33.9515 45.283 33.9663 44.8109 33.922V42.3177C44.9732 42.3177 46.3306 42.3325 46.4782 42.3325C49.9014 42.3325 53.177 41.1373 55.8035 38.8945C58.7398 36.4009 60.5399 32.9039 60.8498 29.0528C61.499 21.1145 55.5674 14.1353 47.6291 13.486C43.778 13.1762 40.0449 14.3714 37.1086 16.8797C34.6593 18.9602 33.0067 21.749 32.3427 24.8476L14.4004 87.3358H23.1207Z" fill="white" />
  <path d="M60.453 28.0938C57.8118 27.3118 55.0379 27.1052 52.3672 26.5298C52.5 27.12 52.559 27.7397 52.5 28.3889C52.3672 29.9973 51.6146 31.4728 50.39 32.5204C49.5194 33.2582 48.4865 33.7303 47.3799 33.8926C46.9372 33.9664 45.2847 33.9812 44.8125 33.9369V42.3326C44.9748 42.3326 46.3323 42.3474 46.4798 42.3474C49.903 42.3474 53.1787 41.1522 55.8051 38.9094C58.7414 36.4158 60.5415 32.9188 60.8514 29.0677C60.8809 28.7873 60.8809 28.507 60.8957 28.2414C60.7629 28.1824 60.6153 28.1381 60.453 28.0938Z" fill="url(#paint0_linear_4843_4606)" />
  <path d="M48.8537 34.0105C47.8946 33.9367 45.7551 33.9367 44.8108 33.9957V42.4357C45.2534 42.3767 46.906 42.3324 47.3634 42.3324C47.629 42.3324 47.9094 42.3471 48.175 42.3619C50.7866 42.5685 53.1475 43.7932 54.8443 45.7851C56.5412 47.7771 57.3527 50.315 57.1461 52.9266C56.7625 57.5893 53.1475 61.2486 48.6766 61.8388C48.6176 61.8388 48.5734 61.8535 48.5143 61.8683C48.234 61.8978 47.9536 61.9125 47.6733 61.9273C47.6143 61.9273 47.5405 61.9273 47.4815 61.9273C47.1864 61.9273 46.8913 61.9273 46.5814 61.8978C38.4956 61.219 37.2119 53.5168 36.961 53.4283L33.9805 64.4209C36.9758 67.6818 41.1515 69.8804 45.9027 70.264C46.4043 70.3083 46.8913 70.323 47.3929 70.323C47.7766 70.323 48.1455 70.3083 48.5143 70.2787C48.6029 70.2787 48.6914 70.264 48.7799 70.264C49.1341 70.2345 49.4882 70.205 49.8276 70.1607C49.8423 70.1607 49.8571 70.1607 49.8718 70.1607C50.2702 70.1017 50.6538 70.0427 51.0522 69.9541C51.067 69.9541 51.0817 69.9541 51.0965 69.9394C58.7692 68.3311 64.8336 61.824 65.4976 53.6201C66.3091 43.6161 58.843 34.822 48.8537 34.0105Z" fill="url(#paint1_linear_4843_4606)" />
  <defs>
    <linearGradient id="paint0_linear_4843_4606" x1="46.8252" y1="50.7112" x2="59.9075" y2="10.3008" gradientUnits="userSpaceOnUse">
      <stop offset="0.3866" />
      <stop offset="0.6153" stop-color="white" stop-opacity="0" />
    </linearGradient>
    <linearGradient id="paint1_linear_4843_4606" x1="36.1939" y1="48.9872" x2="86.8164" y2="63.2014" gradientUnits="userSpaceOnUse">
      <stop offset="0.107" stop-color="white" />
      <stop offset="0.4242" stop-color="white" />
    </linearGradient>
  </defs>
</svg>
