<svg width="20" height="22" viewBox="0 0 20 22" fill="none" xmlns="http://www.w3.org/2000/svg">
<path d="M4.79134 16.9045V12.2626L9.94134 14.9799L9.99968 15.0107L10.058 14.9799L15.208 12.2626V16.9045L9.99968 19.6526L4.79134 16.9045ZM3.27599 4.30585L3.20801 4.34069V4.41709V17.5829V17.6593L3.27599 17.6942L9.94266 21.1112L9.99968 21.1405L10.0567 21.1112L16.7234 17.6942L16.7913 17.6593V17.5829V4.41709V4.34069L16.7234 4.30585L10.0567 0.888761L9.99968 0.859536L9.94266 0.888761L3.27599 4.30585ZM15.208 9.83794L11.6009 7.93467L15.208 6.03141V9.83794ZM4.79134 9.83794V6.03141L8.39848 7.93467L4.79134 9.83794ZM10.7913 12.9535V9.14699L14.3985 11.0503L10.7913 12.9535ZM9.20801 9.14699V12.9535L5.60087 11.0503L9.20801 9.14699ZM9.99968 2.4485L14.3985 4.81684L9.99968 7.09045L5.60088 4.81684L9.99968 2.4485Z" fill="#D6D6D6" stroke="#D6D6D6" stroke-width="0.25"/>
</svg>
