<svg width="252" height="4" viewBox="0 0 252 4" fill="none" xmlns="http://www.w3.org/2000/svg">
<g opacity="0.2">
<path d="M1.5 1C1.5 0.723858 1.27614 0.5 1 0.5C0.723858 0.5 0.5 0.723858 0.5 1L1.5 1ZM0.5 3L0.5 3.5L1.5 3.5L1.5 3L0.5 3ZM0.5 1L0.5 3L1.5 3L1.5 1L0.5 1Z" fill="white"/>
<path d="M7.75 2C7.75 1.72386 7.52614 1.5 7.25 1.5C6.97386 1.5 6.75 1.72386 6.75 2L7.75 2ZM6.75 3L6.75 3.5L7.75 3.5L7.75 3L6.75 3ZM6.75 2L6.75 3L7.75 3L7.75 2L6.75 2Z" fill="white" fill-opacity="0.32"/>
<path d="M12.75 2C12.75 1.72386 12.5261 1.5 12.25 1.5C11.9739 1.5 11.75 1.72386 11.75 2L12.75 2ZM11.75 3L11.75 3.5L12.75 3.5L12.75 3L11.75 3ZM11.75 2L11.75 3L12.75 3L12.75 2L11.75 2Z" fill="white" fill-opacity="0.32"/>
<path d="M17.75 2C17.75 1.72386 17.5261 1.5 17.25 1.5C16.9739 1.5 16.75 1.72386 16.75 2L17.75 2ZM16.75 3L16.75 3.5L17.75 3.5L17.75 3L16.75 3ZM16.75 2L16.75 3L17.75 3L17.75 2L16.75 2Z" fill="white" fill-opacity="0.32"/>
<path d="M22.75 2C22.75 1.72386 22.5261 1.5 22.25 1.5C21.9739 1.5 21.75 1.72386 21.75 2L22.75 2ZM21.75 3L21.75 3.5L22.75 3.5L22.75 3L21.75 3ZM21.75 2L21.75 3L22.75 3L22.75 2L21.75 2Z" fill="white" fill-opacity="0.32"/>
<path d="M27.75 2C27.75 1.72386 27.5261 1.5 27.25 1.5C26.9739 1.5 26.75 1.72386 26.75 2L27.75 2ZM26.75 3L26.75 3.5L27.75 3.5L27.75 3L26.75 3ZM26.75 2L26.75 3L27.75 3L27.75 2L26.75 2Z" fill="white" fill-opacity="0.32"/>
<path d="M32.75 2C32.75 1.72386 32.5261 1.5 32.25 1.5C31.9739 1.5 31.75 1.72386 31.75 2L32.75 2ZM31.75 3L31.75 3.5L32.75 3.5L32.75 3L31.75 3ZM31.75 2L31.75 3L32.75 3L32.75 2L31.75 2Z" fill="white" fill-opacity="0.32"/>
<path d="M37.75 2C37.75 1.72386 37.5261 1.5 37.25 1.5C36.9739 1.5 36.75 1.72386 36.75 2L37.75 2ZM36.75 3L36.75 3.5L37.75 3.5L37.75 3L36.75 3ZM36.75 2L36.75 3L37.75 3L37.75 2L36.75 2Z" fill="white" fill-opacity="0.32"/>
<path d="M42.75 2C42.75 1.72386 42.5261 1.5 42.25 1.5C41.9739 1.5 41.75 1.72386 41.75 2L42.75 2ZM41.75 3L41.75 3.5L42.75 3.5L42.75 3L41.75 3ZM41.75 2L41.75 3L42.75 3L42.75 2L41.75 2Z" fill="white" fill-opacity="0.32"/>
<path d="M47.75 2C47.75 1.72386 47.5261 1.5 47.25 1.5C46.9739 1.5 46.75 1.72386 46.75 2L47.75 2ZM46.75 3L46.75 3.5L47.75 3.5L47.75 3L46.75 3ZM46.75 2L46.75 3L47.75 3L47.75 2L46.75 2Z" fill="white" fill-opacity="0.32"/>
<path d="M52.75 2C52.75 1.72386 52.5261 1.5 52.25 1.5C51.9739 1.5 51.75 1.72386 51.75 2L52.75 2ZM51.75 3L51.75 3.5L52.75 3.5L52.75 3L51.75 3ZM51.75 2L51.75 3L52.75 3L52.75 2L51.75 2Z" fill="white" fill-opacity="0.32"/>
<path d="M57.75 2C57.75 1.72386 57.5261 1.5 57.25 1.5C56.9739 1.5 56.75 1.72386 56.75 2L57.75 2ZM56.75 3L56.75 3.5L57.75 3.5L57.75 3L56.75 3ZM56.75 2L56.75 3L57.75 3L57.75 2L56.75 2Z" fill="white" fill-opacity="0.32"/>
<path d="M64 1C64 0.723858 63.7761 0.5 63.5 0.5C63.2239 0.5 63 0.723858 63 1L64 1ZM63 3L63 3.5L64 3.5L64 3L63 3ZM63 1L63 3L64 3L64 1L63 1Z" fill="white"/>
<path d="M70.25 2C70.25 1.72386 70.0261 1.5 69.75 1.5C69.4739 1.5 69.25 1.72386 69.25 2L70.25 2ZM69.25 3L69.25 3.5L70.25 3.5L70.25 3L69.25 3ZM69.25 2L69.25 3L70.25 3L70.25 2L69.25 2Z" fill="white" fill-opacity="0.32"/>
<path d="M75.25 2C75.25 1.72386 75.0261 1.5 74.75 1.5C74.4739 1.5 74.25 1.72386 74.25 2L75.25 2ZM74.25 3L74.25 3.5L75.25 3.5L75.25 3L74.25 3ZM74.25 2L74.25 3L75.25 3L75.25 2L74.25 2Z" fill="white" fill-opacity="0.32"/>
<path d="M80.25 2C80.25 1.72386 80.0261 1.5 79.75 1.5C79.4739 1.5 79.25 1.72386 79.25 2L80.25 2ZM79.25 3L79.25 3.5L80.25 3.5L80.25 3L79.25 3ZM79.25 2L79.25 3L80.25 3L80.25 2L79.25 2Z" fill="white" fill-opacity="0.32"/>
<path d="M85.25 2C85.25 1.72386 85.0261 1.5 84.75 1.5C84.4739 1.5 84.25 1.72386 84.25 2L85.25 2ZM84.25 3L84.25 3.5L85.25 3.5L85.25 3L84.25 3ZM84.25 2L84.25 3L85.25 3L85.25 2L84.25 2Z" fill="white" fill-opacity="0.32"/>
<path d="M90.25 2C90.25 1.72386 90.0261 1.5 89.75 1.5C89.4739 1.5 89.25 1.72386 89.25 2L90.25 2ZM89.25 3L89.25 3.5L90.25 3.5L90.25 3L89.25 3ZM89.25 2L89.25 3L90.25 3L90.25 2L89.25 2Z" fill="white" fill-opacity="0.32"/>
<path d="M95.25 2C95.25 1.72386 95.0261 1.5 94.75 1.5C94.4739 1.5 94.25 1.72386 94.25 2L95.25 2ZM94.25 3L94.25 3.5L95.25 3.5L95.25 3L94.25 3ZM94.25 2L94.25 3L95.25 3L95.25 2L94.25 2Z" fill="white" fill-opacity="0.32"/>
<path d="M100.25 2C100.25 1.72386 100.026 1.5 99.75 1.5C99.4739 1.5 99.25 1.72386 99.25 2L100.25 2ZM99.25 3L99.25 3.5L100.25 3.5L100.25 3L99.25 3ZM99.25 2L99.25 3L100.25 3L100.25 2L99.25 2Z" fill="white" fill-opacity="0.32"/>
<path d="M105.25 2C105.25 1.72386 105.026 1.5 104.75 1.5C104.474 1.5 104.25 1.72386 104.25 2L105.25 2ZM104.25 3L104.25 3.5L105.25 3.5L105.25 3L104.25 3ZM104.25 2L104.25 3L105.25 3L105.25 2L104.25 2Z" fill="white" fill-opacity="0.32"/>
<path d="M110.25 2C110.25 1.72386 110.026 1.5 109.75 1.5C109.474 1.5 109.25 1.72386 109.25 2L110.25 2ZM109.25 3L109.25 3.5L110.25 3.5L110.25 3L109.25 3ZM109.25 2L109.25 3L110.25 3L110.25 2L109.25 2Z" fill="white" fill-opacity="0.32"/>
<path d="M115.25 2C115.25 1.72386 115.026 1.5 114.75 1.5C114.474 1.5 114.25 1.72386 114.25 2L115.25 2ZM114.25 3L114.25 3.5L115.25 3.5L115.25 3L114.25 3ZM114.25 2L114.25 3L115.25 3L115.25 2L114.25 2Z" fill="white" fill-opacity="0.32"/>
<path d="M120.25 2C120.25 1.72386 120.026 1.5 119.75 1.5C119.474 1.5 119.25 1.72386 119.25 2L120.25 2ZM119.25 3L119.25 3.5L120.25 3.5L120.25 3L119.25 3ZM119.25 2L119.25 3L120.25 3L120.25 2L119.25 2Z" fill="white" fill-opacity="0.32"/>
<path d="M126.5 1C126.5 0.723858 126.276 0.5 126 0.5C125.724 0.5 125.5 0.723858 125.5 1L126.5 1ZM125.5 3L125.5 3.5L126.5 3.5L126.5 3L125.5 3ZM125.5 1L125.5 3L126.5 3L126.5 1L125.5 1Z" fill="white"/>
<path d="M132.75 2C132.75 1.72386 132.526 1.5 132.25 1.5C131.974 1.5 131.75 1.72386 131.75 2L132.75 2ZM131.75 3L131.75 3.5L132.75 3.5L132.75 3L131.75 3ZM131.75 2L131.75 3L132.75 3L132.75 2L131.75 2Z" fill="white" fill-opacity="0.32"/>
<path d="M137.75 2C137.75 1.72386 137.526 1.5 137.25 1.5C136.974 1.5 136.75 1.72386 136.75 2L137.75 2ZM136.75 3L136.75 3.5L137.75 3.5L137.75 3L136.75 3ZM136.75 2L136.75 3L137.75 3L137.75 2L136.75 2Z" fill="white" fill-opacity="0.32"/>
<path d="M142.75 2C142.75 1.72386 142.526 1.5 142.25 1.5C141.974 1.5 141.75 1.72386 141.75 2L142.75 2ZM141.75 3L141.75 3.5L142.75 3.5L142.75 3L141.75 3ZM141.75 2L141.75 3L142.75 3L142.75 2L141.75 2Z" fill="white" fill-opacity="0.32"/>
<path d="M147.75 2C147.75 1.72386 147.526 1.5 147.25 1.5C146.974 1.5 146.75 1.72386 146.75 2L147.75 2ZM146.75 3L146.75 3.5L147.75 3.5L147.75 3L146.75 3ZM146.75 2L146.75 3L147.75 3L147.75 2L146.75 2Z" fill="white" fill-opacity="0.32"/>
<path d="M152.75 2C152.75 1.72386 152.526 1.5 152.25 1.5C151.974 1.5 151.75 1.72386 151.75 2L152.75 2ZM151.75 3L151.75 3.5L152.75 3.5L152.75 3L151.75 3ZM151.75 2L151.75 3L152.75 3L152.75 2L151.75 2Z" fill="white" fill-opacity="0.32"/>
<path d="M157.75 2C157.75 1.72386 157.526 1.5 157.25 1.5C156.974 1.5 156.75 1.72386 156.75 2L157.75 2ZM156.75 3L156.75 3.5L157.75 3.5L157.75 3L156.75 3ZM156.75 2L156.75 3L157.75 3L157.75 2L156.75 2Z" fill="white" fill-opacity="0.32"/>
<path d="M162.75 2C162.75 1.72386 162.526 1.5 162.25 1.5C161.974 1.5 161.75 1.72386 161.75 2L162.75 2ZM161.75 3L161.75 3.5L162.75 3.5L162.75 3L161.75 3ZM161.75 2L161.75 3L162.75 3L162.75 2L161.75 2Z" fill="white" fill-opacity="0.32"/>
<path d="M167.75 2C167.75 1.72386 167.526 1.5 167.25 1.5C166.974 1.5 166.75 1.72386 166.75 2L167.75 2ZM166.75 3L166.75 3.5L167.75 3.5L167.75 3L166.75 3ZM166.75 2L166.75 3L167.75 3L167.75 2L166.75 2Z" fill="white" fill-opacity="0.32"/>
<path d="M172.75 2C172.75 1.72386 172.526 1.5 172.25 1.5C171.974 1.5 171.75 1.72386 171.75 2L172.75 2ZM171.75 3L171.75 3.5L172.75 3.5L172.75 3L171.75 3ZM171.75 2L171.75 3L172.75 3L172.75 2L171.75 2Z" fill="white" fill-opacity="0.32"/>
<path d="M177.75 2C177.75 1.72386 177.526 1.5 177.25 1.5C176.974 1.5 176.75 1.72386 176.75 2L177.75 2ZM176.75 3L176.75 3.5L177.75 3.5L177.75 3L176.75 3ZM176.75 2L176.75 3L177.75 3L177.75 2L176.75 2Z" fill="white" fill-opacity="0.32"/>
<path d="M182.75 2C182.75 1.72386 182.526 1.5 182.25 1.5C181.974 1.5 181.75 1.72386 181.75 2L182.75 2ZM181.75 3L181.75 3.5L182.75 3.5L182.75 3L181.75 3ZM181.75 2L181.75 3L182.75 3L182.75 2L181.75 2Z" fill="white" fill-opacity="0.32"/>
<path d="M189 1C189 0.723858 188.776 0.5 188.5 0.5C188.224 0.5 188 0.723858 188 1L189 1ZM188 3L188 3.5L189 3.5L189 3L188 3ZM188 1L188 3L189 3L189 1L188 1Z" fill="white"/>
<path d="M195.25 2C195.25 1.72386 195.026 1.5 194.75 1.5C194.474 1.5 194.25 1.72386 194.25 2L195.25 2ZM194.25 3L194.25 3.5L195.25 3.5L195.25 3L194.25 3ZM194.25 2L194.25 3L195.25 3L195.25 2L194.25 2Z" fill="white" fill-opacity="0.32"/>
<path d="M200.25 2C200.25 1.72386 200.026 1.5 199.75 1.5C199.474 1.5 199.25 1.72386 199.25 2L200.25 2ZM199.25 3L199.25 3.5L200.25 3.5L200.25 3L199.25 3ZM199.25 2L199.25 3L200.25 3L200.25 2L199.25 2Z" fill="white" fill-opacity="0.32"/>
<path d="M205.25 2C205.25 1.72386 205.026 1.5 204.75 1.5C204.474 1.5 204.25 1.72386 204.25 2L205.25 2ZM204.25 3L204.25 3.5L205.25 3.5L205.25 3L204.25 3ZM204.25 2L204.25 3L205.25 3L205.25 2L204.25 2Z" fill="white" fill-opacity="0.32"/>
<path d="M210.25 2C210.25 1.72386 210.026 1.5 209.75 1.5C209.474 1.5 209.25 1.72386 209.25 2L210.25 2ZM209.25 3L209.25 3.5L210.25 3.5L210.25 3L209.25 3ZM209.25 2L209.25 3L210.25 3L210.25 2L209.25 2Z" fill="white" fill-opacity="0.32"/>
<path d="M215.25 2C215.25 1.72386 215.026 1.5 214.75 1.5C214.474 1.5 214.25 1.72386 214.25 2L215.25 2ZM214.25 3L214.25 3.5L215.25 3.5L215.25 3L214.25 3ZM214.25 2L214.25 3L215.25 3L215.25 2L214.25 2Z" fill="white" fill-opacity="0.32"/>
<path d="M220.25 2C220.25 1.72386 220.026 1.5 219.75 1.5C219.474 1.5 219.25 1.72386 219.25 2L220.25 2ZM219.25 3L219.25 3.5L220.25 3.5L220.25 3L219.25 3ZM219.25 2L219.25 3L220.25 3L220.25 2L219.25 2Z" fill="white" fill-opacity="0.32"/>
<path d="M225.25 2C225.25 1.72386 225.026 1.5 224.75 1.5C224.474 1.5 224.25 1.72386 224.25 2L225.25 2ZM224.25 3L224.25 3.5L225.25 3.5L225.25 3L224.25 3ZM224.25 2L224.25 3L225.25 3L225.25 2L224.25 2Z" fill="white" fill-opacity="0.32"/>
<path d="M230.25 2C230.25 1.72386 230.026 1.5 229.75 1.5C229.474 1.5 229.25 1.72386 229.25 2L230.25 2ZM229.25 3L229.25 3.5L230.25 3.5L230.25 3L229.25 3ZM229.25 2L229.25 3L230.25 3L230.25 2L229.25 2Z" fill="white" fill-opacity="0.32"/>
<path d="M235.25 2C235.25 1.72386 235.026 1.5 234.75 1.5C234.474 1.5 234.25 1.72386 234.25 2L235.25 2ZM234.25 3L234.25 3.5L235.25 3.5L235.25 3L234.25 3ZM234.25 2L234.25 3L235.25 3L235.25 2L234.25 2Z" fill="white" fill-opacity="0.32"/>
<path d="M240.25 2C240.25 1.72386 240.026 1.5 239.75 1.5C239.474 1.5 239.25 1.72386 239.25 2L240.25 2ZM239.25 3L239.25 3.5L240.25 3.5L240.25 3L239.25 3ZM239.25 2L239.25 3L240.25 3L240.25 2L239.25 2Z" fill="white" fill-opacity="0.32"/>
<path d="M245.25 2C245.25 1.72386 245.026 1.5 244.75 1.5C244.474 1.5 244.25 1.72386 244.25 2L245.25 2ZM244.25 3L244.25 3.5L245.25 3.5L245.25 3L244.25 3ZM244.25 2L244.25 3L245.25 3L245.25 2L244.25 2Z" fill="white" fill-opacity="0.32"/>
<path d="M251.5 1C251.5 0.723858 251.276 0.5 251 0.5C250.724 0.5 250.5 0.723858 250.5 1L251.5 1ZM250.5 3L250.5 3.5L251.5 3.5L251.5 3L250.5 3ZM250.5 1L250.5 3L251.5 3L251.5 1L250.5 1Z" fill="white"/>
</g>
</svg>
