<svg width="184" height="194" viewBox="0 0 184 194" fill="none" xmlns="http://www.w3.org/2000/svg">
<path d="M184 128L38 128" stroke="url(#paint0_linear_1212_2431)" stroke-width="0.5"/>
<line x1="184" y1="161.25" x2="110" y2="161.25" stroke="url(#paint1_linear_1212_2431)" stroke-width="0.5"/>
<line x1="184" y1="193.25" x2="110" y2="193.25" stroke="url(#paint2_linear_1212_2431)" stroke-width="0.5"/>
<line x1="184" y1="97.25" x2="36" y2="97.25" stroke="url(#paint3_linear_1212_2431)" stroke-width="0.5"/>
<path d="M184 64.4999L22 64.4999" stroke="url(#paint4_linear_1212_2431)" stroke-width="0.5"/>
<line y1="-0.25" x2="166.75" y2="-0.25" transform="matrix(-1 -4.37114e-08 -4.37114e-08 1 184 32.9999)" stroke="url(#paint5_linear_1212_2431)" stroke-width="0.5"/>
<line y1="-0.25" x2="184" y2="-0.25" transform="matrix(-1 -4.37114e-08 -4.37114e-08 1 184 0.999939)" stroke="url(#paint6_linear_1212_2431)" stroke-width="0.5"/>
<defs>
<linearGradient id="paint0_linear_1212_2431" x1="184" y1="127" x2="38" y2="127" gradientUnits="userSpaceOnUse">
<stop stop-color="white" stop-opacity="0.12"/>
<stop offset="1" stop-color="white" stop-opacity="0"/>
</linearGradient>
<linearGradient id="paint1_linear_1212_2431" x1="184" y1="160.5" x2="110" y2="160.5" gradientUnits="userSpaceOnUse">
<stop stop-color="white" stop-opacity="0.12"/>
<stop offset="1" stop-color="white" stop-opacity="0"/>
</linearGradient>
<linearGradient id="paint2_linear_1212_2431" x1="184" y1="192.5" x2="110" y2="192.5" gradientUnits="userSpaceOnUse">
<stop stop-color="white" stop-opacity="0.12"/>
<stop offset="1" stop-color="white" stop-opacity="0"/>
</linearGradient>
<linearGradient id="paint3_linear_1212_2431" x1="184" y1="96.5" x2="36" y2="96.5" gradientUnits="userSpaceOnUse">
<stop stop-color="white" stop-opacity="0.12"/>
<stop offset="1" stop-color="white" stop-opacity="0"/>
</linearGradient>
<linearGradient id="paint4_linear_1212_2431" x1="184" y1="65.4999" x2="46" y2="65" gradientUnits="userSpaceOnUse">
<stop stop-color="white" stop-opacity="0.12"/>
<stop offset="1" stop-color="white" stop-opacity="0"/>
</linearGradient>
<linearGradient id="paint5_linear_1212_2431" x1="0" y1="0.5" x2="166.75" y2="0.5" gradientUnits="userSpaceOnUse">
<stop stop-color="white" stop-opacity="0.12"/>
<stop offset="1" stop-color="white" stop-opacity="0"/>
</linearGradient>
<linearGradient id="paint6_linear_1212_2431" x1="0" y1="0.5" x2="184" y2="0.5" gradientUnits="userSpaceOnUse">
<stop stop-color="white" stop-opacity="0.12"/>
<stop offset="1" stop-color="white" stop-opacity="0"/>
</linearGradient>
</defs>
</svg>
