<svg width="145" height="232" viewBox="0 0 145 232" fill="none" xmlns="http://www.w3.org/2000/svg">
<line x1="0.25" y1="-1.09278e-08" x2="0.250007" y2="159" stroke="url(#paint0_linear_1212_2422)" stroke-width="0.5"/>
<line x1="24.25" y1="-1.09278e-08" x2="24.25" y2="159" stroke="url(#paint1_linear_1212_2422)" stroke-width="0.5"/>
<line x1="48.25" y1="-1.09278e-08" x2="48.25" y2="159" stroke="url(#paint2_linear_1212_2422)" stroke-width="0.5"/>
<line x1="72.25" y1="-1.09278e-08" x2="72.25" y2="192" stroke="url(#paint3_linear_1212_2422)" stroke-width="0.5"/>
<line x1="144.25" y1="-1.09278e-08" x2="144.25" y2="232" stroke="url(#paint4_linear_1212_2422)" stroke-width="0.5"/>
<line x1="120.25" y1="-1.09278e-08" x2="120.25" y2="232" stroke="url(#paint5_linear_1212_2422)" stroke-width="0.5"/>
<line x1="96.25" y1="-1.09278e-08" x2="96.25" y2="232" stroke="url(#paint6_linear_1212_2422)" stroke-width="0.5"/>
<defs>
<linearGradient id="paint0_linear_1212_2422" x1="-0.5" y1="2.18557e-08" x2="-0.499993" y2="159" gradientUnits="userSpaceOnUse">
<stop stop-color="white" stop-opacity="0.24"/>
<stop offset="1" stop-color="white" stop-opacity="0"/>
</linearGradient>
<linearGradient id="paint1_linear_1212_2422" x1="23.5" y1="2.18557e-08" x2="23.5" y2="159" gradientUnits="userSpaceOnUse">
<stop stop-color="white" stop-opacity="0.24"/>
<stop offset="1" stop-color="white" stop-opacity="0"/>
</linearGradient>
<linearGradient id="paint2_linear_1212_2422" x1="47.5" y1="2.18557e-08" x2="47.5" y2="159" gradientUnits="userSpaceOnUse">
<stop stop-color="white" stop-opacity="0.24"/>
<stop offset="1" stop-color="white" stop-opacity="0"/>
</linearGradient>
<linearGradient id="paint3_linear_1212_2422" x1="71.5" y1="2.18557e-08" x2="71.5" y2="192" gradientUnits="userSpaceOnUse">
<stop stop-color="white" stop-opacity="0.24"/>
<stop offset="1" stop-color="white" stop-opacity="0"/>
</linearGradient>
<linearGradient id="paint4_linear_1212_2422" x1="143.5" y1="2.18557e-08" x2="143.5" y2="232" gradientUnits="userSpaceOnUse">
<stop stop-color="white" stop-opacity="0.24"/>
<stop offset="1" stop-color="white" stop-opacity="0"/>
</linearGradient>
<linearGradient id="paint5_linear_1212_2422" x1="119.5" y1="2.18557e-08" x2="119.5" y2="232" gradientUnits="userSpaceOnUse">
<stop stop-color="white" stop-opacity="0.24"/>
<stop offset="1" stop-color="white" stop-opacity="0"/>
</linearGradient>
<linearGradient id="paint6_linear_1212_2422" x1="95.5" y1="2.18557e-08" x2="95.5" y2="232" gradientUnits="userSpaceOnUse">
<stop stop-color="white" stop-opacity="0.24"/>
<stop offset="1" stop-color="white" stop-opacity="0"/>
</linearGradient>
</defs>
</svg>
