<svg width="484" height="256" viewBox="0 0 484 256" fill="none" xmlns="http://www.w3.org/2000/svg">
<path d="M484 105.086L242 -4.45683L1.41859e-05 -114M484 106.996L0.000121307 -39.3311M484 108.905L0.000116563 1.33479M484 110.815L0.00012489 27.8073M484 112.724L0.000252935 47.0355M484 114.634L0 62.0935M484 116.543L8.66115e-05 74.5564M484 118.453L0.000142399 85.3213M484 120.362L9.57501e-05 94.9423M484 122.272L6.65342e-05 103.788M484 124.181L3.02782e-05 112.118M484 126.091L0.00190148 120.134M484 128H7.95499e-05M484 129.909L0.00190148 135.866M484 131.819L3.02782e-05 143.882M484 133.728L6.65342e-05 152.213M484 135.638L9.57501e-05 161.058M484 137.547L0.000142399 170.679M484 139.457L8.66115e-05 181.444M484 141.366L0 193.907M484 143.276L0.000252935 208.965M484 145.185L0.00012489 228.193M484 147.095L0.000116563 254.665M484 149.004L0.000121307 295.331M484 150.914L1.41859e-05 370" stroke="url(#paint0_radial_1212_2454)" stroke-width="0.5"/>
<defs>
<radialGradient id="paint0_radial_1212_2454" cx="0" cy="0" r="1" gradientUnits="userSpaceOnUse" gradientTransform="translate(484 128) rotate(-180) scale(484 1730.04)">
<stop stop-color="#121212"/>
<stop offset="0.25" stop-color="#666666"/>
<stop offset="0.75" stop-color="#292929"/>
<stop offset="1" stop-color="#121212"/>
</radialGradient>
</defs>
</svg>
