<svg width="96" height="24" viewBox="0 0 96 24" fill="none" xmlns="http://www.w3.org/2000/svg">
<path fill-rule="evenodd" clip-rule="evenodd" d="M0.317161 2.12251C0 2.82722 0 3.73096 0 5.53846L0 18.4615C0 20.269 0 21.1728 0.317161 21.8775C0.678173 22.6796 1.32038 23.3218 2.12251 23.6828C2.82722 24 3.73096 24 5.53846 24H12C18.6274 24 24 18.6274 24 12C24 5.37258 18.6274 0 12 0L5.53846 0C3.73096 0 2.82722 0 2.12251 0.317161C1.32038 0.678173 0.678173 1.32038 0.317161 2.12251ZM8.58703 9.68107C8.26446 10.4776 8.04001 11.309 8.15286 11.8769C8.81929 11.8836 8.85338 11.8469 9.10819 11.5722C9.15374 11.5231 9.20636 11.4663 9.2709 11.4009L14.0476 5.79268C15.3695 4.24078 17.0028 5.45061 15.7241 6.97529L11.0613 12.5352C11.0551 12.5426 11.0489 12.55 11.0427 12.5574C10.6941 12.9758 10.3294 13.4136 10.6372 13.9826C10.8882 14.2192 11.646 13.9419 12.4098 13.4976L16.6892 11.0084C18.48 9.96669 19.4573 11.9073 17.8604 12.8007L12.835 15.6122C12.7382 15.6669 12.6227 15.7286 12.495 15.7968C11.4521 16.3539 9.59527 17.3457 10.4319 18.5423C10.9773 19.3222 12.891 19.3167 14.1746 19.313C14.2597 19.3128 14.342 19.3125 14.421 19.3125C16.1215 19.3125 16.1273 21.3335 14.2515 21.3333L9.88663 21.3329C3.7711 21.3385 2.69137 19.5161 2.69198 13.6569L2.66669 7.24743C2.65921 5.35481 4.79263 5.24709 4.78471 7.1681L4.77345 9.90137C4.81168 10.5103 4.85972 10.7389 5.16429 11.0128C5.69432 11.2681 6.19818 10.2891 6.5913 9.23348L8.10838 5.16008C8.87342 3.10593 10.8418 4.11253 10.2335 5.61483L8.58703 9.68107Z" fill="#E7E7E2"/>
<path d="M33.54 20V5.1H38.42C39.9667 5.1 41.3067 5.41333 42.44 6.04C43.5867 6.65333 44.4733 7.52 45.1 8.64C45.7267 9.76 46.04 11.06 46.04 12.54C46.04 14.0067 45.7267 15.3067 45.1 16.44C44.4733 17.56 43.5867 18.4333 42.44 19.06C41.3067 19.6867 39.9667 20 38.42 20H33.54ZM35.9 17.9H38.46C39.5133 17.9 40.4267 17.68 41.2 17.24C41.9867 16.8 42.5933 16.18 43.02 15.38C43.4467 14.58 43.66 13.6333 43.66 12.54C43.66 11.4467 43.44 10.5067 43 9.72C42.5733 8.92 41.9733 8.3 41.2 7.86C40.4267 7.42 39.5133 7.2 38.46 7.2H35.9V17.9ZM52.8242 20.24C51.7442 20.24 50.7842 19.9933 49.9442 19.5C49.1176 18.9933 48.4709 18.3133 48.0042 17.46C47.5376 16.5933 47.3042 15.6267 47.3042 14.56C47.3042 13.4667 47.5376 12.5 48.0042 11.66C48.4842 10.82 49.1242 10.16 49.9242 9.68C50.7242 9.18667 51.6309 8.94 52.6442 8.94C53.4576 8.94 54.1842 9.08 54.8242 9.36C55.4642 9.64 56.0042 10.0267 56.4442 10.52C56.8842 11 57.2176 11.5533 57.4442 12.18C57.6842 12.8067 57.8042 13.4733 57.8042 14.18C57.8042 14.3533 57.7976 14.5333 57.7842 14.72C57.7709 14.9067 57.7442 15.08 57.7042 15.24H49.0842V13.44H56.4242L55.3442 14.26C55.4776 13.6067 55.4309 13.0267 55.2042 12.52C54.9909 12 54.6576 11.5933 54.2042 11.3C53.7642 10.9933 53.2442 10.84 52.6442 10.84C52.0442 10.84 51.5109 10.9933 51.0442 11.3C50.5776 11.5933 50.2176 12.02 49.9642 12.58C49.7109 13.1267 49.6109 13.7933 49.6642 14.58C49.5976 15.3133 49.6976 15.9533 49.9642 16.5C50.2442 17.0467 50.6309 17.4733 51.1242 17.78C51.6309 18.0867 52.2042 18.24 52.8442 18.24C53.4976 18.24 54.0509 18.0933 54.5042 17.8C54.9709 17.5067 55.3376 17.1267 55.6042 16.66L57.4442 17.56C57.2309 18.0667 56.8976 18.5267 56.4442 18.94C56.0042 19.34 55.4709 19.66 54.8442 19.9C54.2309 20.1267 53.5576 20.24 52.8242 20.24ZM59.8298 20V5.1H69.5298V7.2H62.1898V11.68H68.7298V13.78H62.1898V20H59.8298ZM70.8895 20V9.18H73.1495V20H70.8895ZM70.8895 7.7V5.1H73.1495V7.7H70.8895ZM78.5319 20L74.2919 9.18H76.7519L80.0119 18H79.1119L82.3719 9.18H84.8519L80.5919 20H78.5319ZM90.8727 20.24C89.7927 20.24 88.8327 19.9933 87.9927 19.5C87.166 18.9933 86.5193 18.3133 86.0527 17.46C85.586 16.5933 85.3527 15.6267 85.3527 14.56C85.3527 13.4667 85.586 12.5 86.0527 11.66C86.5327 10.82 87.1727 10.16 87.9727 9.68C88.7727 9.18667 89.6793 8.94 90.6927 8.94C91.506 8.94 92.2327 9.08 92.8727 9.36C93.5127 9.64 94.0527 10.0267 94.4927 10.52C94.9327 11 95.266 11.5533 95.4927 12.18C95.7327 12.8067 95.8527 13.4733 95.8527 14.18C95.8527 14.3533 95.846 14.5333 95.8327 14.72C95.8193 14.9067 95.7927 15.08 95.7527 15.24H87.1327V13.44H94.4727L93.3927 14.26C93.526 13.6067 93.4793 13.0267 93.2527 12.52C93.0393 12 92.706 11.5933 92.2527 11.3C91.8127 10.9933 91.2927 10.84 90.6927 10.84C90.0927 10.84 89.5593 10.9933 89.0927 11.3C88.626 11.5933 88.266 12.02 88.0127 12.58C87.7593 13.1267 87.6593 13.7933 87.7127 14.58C87.646 15.3133 87.746 15.9533 88.0127 16.5C88.2927 17.0467 88.6793 17.4733 89.1727 17.78C89.6793 18.0867 90.2527 18.24 90.8927 18.24C91.546 18.24 92.0993 18.0933 92.5527 17.8C93.0193 17.5067 93.386 17.1267 93.6527 16.66L95.4927 17.56C95.2793 18.0667 94.946 18.5267 94.4927 18.94C94.0527 19.34 93.5193 19.66 92.8927 19.9C92.2793 20.1267 91.606 20.24 90.8727 20.24Z" fill="#E7E7E2"/>
</svg>
