<svg width="24" height="24" viewBox="0 0 24 24" fill="none" xmlns="http://www.w3.org/2000/svg">
<path fill-rule="evenodd" clip-rule="evenodd" d="M0.317161 2.12251C0 2.82722 0 3.73096 0 5.53846L0 18.4615C0 20.269 0 21.1728 0.317161 21.8775C0.678173 22.6796 1.32038 23.3218 2.12251 23.6828C2.82722 24 3.73096 24 5.53846 24H12C18.6274 24 24 18.6274 24 12C24 5.37258 18.6274 0 12 0L5.53846 0C3.73096 0 2.82722 0 2.12251 0.317161C1.32038 0.678173 0.678173 1.32038 0.317161 2.12251ZM8.58703 9.68107C8.26446 10.4776 8.04001 11.309 8.15286 11.8769C8.81929 11.8836 8.85338 11.8469 9.10819 11.5722C9.15374 11.5231 9.20636 11.4663 9.2709 11.4009L14.0476 5.79268C15.3695 4.24078 17.0028 5.45061 15.7241 6.97529L11.0613 12.5352C11.0551 12.5426 11.0489 12.55 11.0427 12.5574C10.6941 12.9758 10.3294 13.4136 10.6372 13.9826C10.8882 14.2192 11.646 13.9419 12.4098 13.4976L16.6892 11.0084C18.48 9.96669 19.4573 11.9073 17.8604 12.8007L12.835 15.6122C12.7382 15.6669 12.6227 15.7286 12.495 15.7968C11.4521 16.3539 9.59527 17.3457 10.4319 18.5423C10.9773 19.3222 12.891 19.3167 14.1746 19.313C14.2597 19.3128 14.342 19.3125 14.421 19.3125C16.1215 19.3125 16.1273 21.3335 14.2515 21.3333L9.88663 21.3329C3.7711 21.3385 2.69137 19.5161 2.69198 13.6569L2.66669 7.24743C2.65921 5.35481 4.79263 5.24709 4.78471 7.1681L4.77345 9.90137C4.81168 10.5103 4.85972 10.7389 5.16429 11.0128C5.69432 11.2681 6.19818 10.2891 6.5913 9.23348L8.10838 5.16008C8.87342 3.10593 10.8418 4.11253 10.2335 5.61483L8.58703 9.68107Z" fill="#E7E7E2"/>
</svg>
